<?xml version="1.0" encoding="UTF-8"?>
<svg id="Layer_1" xmlns="http://www.w3.org/2000/svg" xmlns:xlink="http://www.w3.org/1999/xlink" version="1.1" viewBox="0 0 185 50">
  <defs>
    <style>
      .st0 { fill: none; }
      .st1 { fill: #ffd875; }
      .st2 { fill: #fff; }
      .st5 { display: none; fill: #212121; stroke: #000; stroke-miterlimit: 10; }
      .st6 { clip-path: url(#clippath); }
    </style>
    <clipPath id="clippath">
      <rect class="st0" width="185" height="50"/>
    </clipPath>
  </defs>
  <g class="st6">
    <g>
      <!-- Icon -->
      <path class="st2" d="M23.5,11.1c-2.7-1.7-6.2.2-6.2,3.4v14.7c0,3.2,3.5,5.1,6.2,3.4l11.4-7.4c2.5-1.6,2.5-5.2,0-6.8l-11.4-7.4h0Z"/>
      <path class="st1" d="M49.2,26.6c-2.1,11-11.7,19.3-23.3,19.3S4.6,37.6,2.5,26.6c-1.7.6-2.8,2.5-2.2,4.4,3.7,10.6,13.7,18.1,25.5,18.1s21.8-7.6,25.5-18.1c.6-1.9-.4-3.8-2.2-4.4h0Z"/>
      <path class="st1" d="M13.6,34.9c-.4-.9-.7-1.9-.7-3v-2.6c0-1.6-1.3-2.9-2.9-2.9h-1.4c.8,3.3,2.6,6.2,4.9,8.5Z"/>
      <path class="st1" d="M44.5,26.4c-1.9,8.5-9.5,14.8-18.6,14.8s-16.7-6.3-18.6-14.8h-2.9c2,10.1,10.9,17.7,21.6,17.7s19.6-7.6,21.6-17.7h-2.9Z"/>
      <path class="st1" d="M43,26.5c-.8,0-1.7.3-2.4.8l-16.6,10.7c-1.1.7-2.3,1.1-3.4,1.1,1.7.5,3.4.8,5.3.8,8.3,0,15.2-5.7,17.2-13.4Z"/>
      <path class="st2" d="M47.9,20.1C46.9,8.8,37.4,0,25.9,0S4.9,8.8,3.8,20.1c0,1,.6,1.9,1.6,2,1,0,1.8-.6,1.9-1.6C8.2,11,16.2,3.5,25.9,3.5s17.7,7.4,18.5,16.9c0,1,.9,1.7,1.9,1.6,1,0,1.7-1,1.6-2h0Z"/>

      <!-- Main text: NuiPhim -->
      <text x="62" y="27" font-family="Arial, Helvetica, sans-serif" font-size="22" font-weight="700" fill="#ffffff" letter-spacing="0.5">NuiPhim</text>

      <!-- Tagline: Phim chất đầy núi -->
      <text x="62" y="43" font-family="Arial, Helvetica, sans-serif" font-size="10" font-weight="400" fill="#ffffff" opacity="0.7">Phim chất đầy núi</text>
    </g>
  </g>
</svg>
